{
    "asset" : {
        "generator" : "Khronos glTF Blender I/O v0.9.6",
        "version" : "2.0"
    },
    "scene" : 0,
    "scenes" : [
        {
            "name" : "Scene",
            "nodes" : [
                0,
                1,
                2,
                3,
                4,
                5,
                6,
                7,
                8
            ]
        }
    ],
    "nodes" : [
        {
            "mesh" : 0,
            "name" : "Cone"
        },
        {
            "mesh" : 1,
            "name" : "Cone.001",
            "scale" : [
                0.8149317502975464,
                1,
                1
            ]
        },
        {
            "mesh" : 2,
            "name" : "Plane",
            "rotation" : [
                0.7071067690849304,
                0,
                0,
                0.7071067690849304
            ],
            "scale" : [
                2.6719815731048584,
                2.6719815731048584,
                2.6719815731048584
            ]
        },
        {
            "mesh" : 3,
            "name" : "kam",
            "scale" : [
                0.33981549739837646,
                0.8842028975486755,
                0.8842028975486755
            ]
        },
        {
            "mesh" : 4,
            "name" : "body.hp"
        },
        {
            "name" : "Lamp",
            "rotation" : [
                0.18625585734844208,
                0.4695497453212738,
                -0.028445415198802948,
                0.8625674843788147
            ],
            "translation" : [
                4.256675720214844,
                15.674600601196289,
                16.59102439880371
            ]
        },
        {
            "name" : "Camera",
            "rotation" : [
                0.483536034822464,
                0.33687159419059753,
                -0.20870360732078552,
                0.7804827094078064
            ],
            "translation" : [
                7.481131553649902,
                5.34366512298584,
                6.5076398849487305
            ]
        },
        {
            "mesh" : 5,
            "name" : "body.hp.001",
            "rotation" : [
                0,
                0.23209065198898315,
                0,
                0.9726941585540771
            ]
        },
        {
            "mesh" : 6,
            "name" : "body.hp.002",
            "rotation" : [
                0,
                -0.2668645977973938,
                0,
                0.9637340307235718
            ],
            "scale" : [
                -1,
                1,
                1
            ]
        }
    ],
    "materials" : [
        {
            "name" : "Orange",
            "pbrMetallicRoughness" : {
                "baseColorFactor" : [
                    0.8000000715255737,
                    0.27957066893577576,
                    0.03363529220223427,
                    1
                ],
                "metallicFactor" : 0,
                "roughnessFactor" : 0.5
            }
        },
        {
            "name" : "White.001",
            "pbrMetallicRoughness" : {
                "baseColorFactor" : [
                    0.6649950742721558,
                    1,
                    0.9144659638404846,
                    1
                ],
                "metallicFactor" : 0,
                "roughnessFactor" : 0.5
            }
        },
        {
            "name" : "Black",
            "pbrMetallicRoughness" : {
                "baseColorFactor" : [
                    0,
                    0,
                    0,
                    1
                ],
                "metallicFactor" : 0,
                "roughnessFactor" : 0.5
            }
        },
        {
            "name" : "Red",
            "pbrMetallicRoughness" : {
                "baseColorFactor" : [
                    0.8000000715255737,
                    0.05086243525147438,
                    0.034291695803403854,
                    1
                ],
                "metallicFactor" : 0,
                "roughnessFactor" : 0.5
            }
        },
        {
            "name" : "White",
            "pbrMetallicRoughness" : {
                "baseColorFactor" : [
                    0.8000000715255737,
                    0.6845876574516296,
                    0.7542654871940613,
                    1
                ],
                "metallicFactor" : 0,
                "roughnessFactor" : 0.5
            }
        }
    ],
    "meshes" : [
        {
            "name" : "Cone",
            "primitives" : [
                {
                    "attributes" : {
                        "POSITION" : 0,
                        "NORMAL" : 1,
                        "TEXCOORD_0" : 2
                    },
                    "indices" : 3,
                    "material" : 0
                }
            ]
        },
        {
            "name" : "Cone.001",
            "primitives" : [
                {
                    "attributes" : {
                        "POSITION" : 4,
                        "NORMAL" : 5,
                        "TEXCOORD_0" : 6
                    },
                    "indices" : 7,
                    "material" : 0
                }
            ]
        },
        {
            "name" : "Plane",
            "primitives" : [
                {
                    "attributes" : {
                        "POSITION" : 8,
                        "NORMAL" : 9,
                        "TEXCOORD_0" : 10
                    },
                    "indices" : 11,
                    "material" : 1
                },
                {
                    "attributes" : {
                        "POSITION" : 12,
                        "NORMAL" : 13,
                        "TEXCOORD_0" : 14
                    },
                    "indices" : 15,
                    "material" : 2
                }
            ]
        },
        {
            "name" : "Mesh",
            "primitives" : [
                {
                    "attributes" : {
                        "POSITION" : 16,
                        "NORMAL" : 17
                    },
                    "indices" : 18,
                    "material" : 3
                }
            ]
        },
        {
            "name" : "Icosphere",
            "primitives" : [
                {
                    "attributes" : {
                        "POSITION" : 19,
                        "NORMAL" : 20
                    },
                    "indices" : 21,
                    "material" : 4
                }
            ]
        },
        {
            "name" : "Icosphere.002",
            "primitives" : [
                {
                    "attributes" : {
                        "POSITION" : 22,
                        "NORMAL" : 23
                    },
                    "indices" : 24,
                    "material" : 4
                }
            ]
        },
        {
            "name" : "Icosphere.003",
            "primitives" : [
                {
                    "attributes" : {
                        "POSITION" : 25,
                        "NORMAL" : 26
                    },
                    "indices" : 24,
                    "material" : 4
                }
            ]
        }
    ],
    "accessors" : [
        {
            "bufferView" : 0,
            "componentType" : 5126,
            "count" : 60,
            "max" : [
                0.6386198997497559,
                5.386423110961914,
                4.36357307434082
            ],
            "min" : [
                -0.7718884944915771,
                3.7155354022979736,
                2.7089858055114746
            ],
            "type" : "VEC3"
        },
        {
            "bufferView" : 1,
            "componentType" : 5126,
            "count" : 60,
            "type" : "VEC3"
        },
        {
            "bufferView" : 2,
            "componentType" : 5126,
            "count" : 60,
            "type" : "VEC2"
        },
        {
            "bufferView" : 3,
            "componentType" : 5123,
            "count" : 84,
            "type" : "SCALAR"
        },
        {
            "bufferView" : 4,
            "componentType" : 5126,
            "count" : 44,
            "max" : [
                0.6234874725341797,
                4.708552360534668,
                4.160202503204346
            ],
            "min" : [
                -0.7870209217071533,
                3.9798667430877686,
                2.514370918273926
            ],
            "type" : "VEC3"
        },
        {
            "bufferView" : 5,
            "componentType" : 5126,
            "count" : 44,
            "type" : "VEC3"
        },
        {
            "bufferView" : 6,
            "componentType" : 5126,
            "count" : 44,
            "type" : "VEC2"
        },
        {
            "bufferView" : 7,
            "componentType" : 5123,
            "count" : 60,
            "type" : "SCALAR"
        },
        {
            "bufferView" : 8,
            "componentType" : 5126,
            "count" : 8,
            "max" : [
                0.2779579162597656,
                1.0468379259109497,
                -2.2629494667053223
            ],
            "min" : [
                -0.5018027424812317,
                0.8614896535873413,
                -2.475242853164673
            ],
            "type" : "VEC3"
        },
        {
            "bufferView" : 9,
            "componentType" : 5126,
            "count" : 8,
            "type" : "VEC3"
        },
        {
            "bufferView" : 10,
            "componentType" : 5126,
            "count" : 8,
            "type" : "VEC2"
        },
        {
            "bufferView" : 11,
            "componentType" : 5123,
            "count" : 12,
            "type" : "SCALAR"
        },
        {
            "bufferView" : 12,
            "componentType" : 5126,
            "count" : 232,
            "max" : [
                0.43801403045654297,
                1.0864561796188354,
                -1.9196480512619019
            ],
            "min" : [
                -0.5143873691558838,
                0.8333489894866943,
                -2.4949917793273926
            ],
            "type" : "VEC3"
        },
        {
            "bufferView" : 13,
            "componentType" : 5126,
            "count" : 232,
            "type" : "VEC3"
        },
        {
            "bufferView" : 14,
            "componentType" : 5126,
            "count" : 232,
            "type" : "VEC2"
        },
        {
            "bufferView" : 15,
            "componentType" : 5123,
            "count" : 348,
            "type" : "SCALAR"
        },
        {
            "bufferView" : 16,
            "componentType" : 5126,
            "count" : 1872,
            "max" : [
                1.1022491455078125,
                11.510154724121094,
                3.525524616241455
            ],
            "min" : [
                -1.4025087356567383,
                6.750592231750488,
                -1.7884650230407715
            ],
            "type" : "VEC3"
        },
        {
            "bufferView" : 17,
            "componentType" : 5126,
            "count" : 1872,
            "type" : "VEC3"
        },
        {
            "bufferView" : 18,
            "componentType" : 5123,
            "count" : 2544,
            "type" : "SCALAR"
        },
        {
            "bufferView" : 19,
            "componentType" : 5126,
            "count" : 1648,
            "max" : [
                2.891962766647339,
                7.390446186065674,
                3.2364625930786133
            ],
            "min" : [
                -2.993995428085327,
                -3.077423572540283,
                -7.199974536895752
            ],
            "type" : "VEC3"
        },
        {
            "bufferView" : 20,
            "componentType" : 5126,
            "count" : 1648,
            "type" : "VEC3"
        },
        {
            "bufferView" : 21,
            "componentType" : 5123,
            "count" : 2472,
            "type" : "SCALAR"
        },
        {
            "bufferView" : 22,
            "componentType" : 5126,
            "count" : 312,
            "max" : [
                -2.268561840057373,
                2.4918735027313232,
                0.4506697654724121
            ],
            "min" : [
                -3.28432035446167,
                -1.4370429515838623,
                -4.974204063415527
            ],
            "type" : "VEC3"
        },
        {
            "bufferView" : 23,
            "componentType" : 5126,
            "count" : 312,
            "type" : "VEC3"
        },
        {
            "bufferView" : 24,
            "componentType" : 5123,
            "count" : 468,
            "type" : "SCALAR"
        },
        {
            "bufferView" : 25,
            "componentType" : 5126,
            "count" : 312,
            "max" : [
                -2.2313506603240967,
                2.466212511062622,
                0.2124367356300354
            ],
            "min" : [
                -3.2471091747283936,
                -1.4627039432525635,
                -5.212437152862549
            ],
            "type" : "VEC3"
        },
        {
            "bufferView" : 26,
            "componentType" : 5126,
            "count" : 312,
            "type" : "VEC3"
        }
    ],
    "bufferViews" : [
        {
            "buffer" : 0,
            "byteLength" : 720,
            "byteOffset" : 0
        },
        {
            "buffer" : 0,
            "byteLength" : 720,
            "byteOffset" : 720
        },
        {
            "buffer" : 0,
            "byteLength" : 480,
            "byteOffset" : 1440
        },
        {
            "buffer" : 0,
            "byteLength" : 168,
            "byteOffset" : 1920
        },
        {
            "buffer" : 0,
            "byteLength" : 528,
            "byteOffset" : 2088
        },
        {
            "buffer" : 0,
            "byteLength" : 528,
            "byteOffset" : 2616
        },
        {
            "buffer" : 0,
            "byteLength" : 352,
            "byteOffset" : 3144
        },
        {
            "buffer" : 0,
            "byteLength" : 120,
            "byteOffset" : 3496
        },
        {
            "buffer" : 0,
            "byteLength" : 96,
            "byteOffset" : 3616
        },
        {
            "buffer" : 0,
            "byteLength" : 96,
            "byteOffset" : 3712
        },
        {
            "buffer" : 0,
            "byteLength" : 64,
            "byteOffset" : 3808
        },
        {
            "buffer" : 0,
            "byteLength" : 24,
            "byteOffset" : 3872
        },
        {
            "buffer" : 0,
            "byteLength" : 2784,
            "byteOffset" : 3896
        },
        {
            "buffer" : 0,
            "byteLength" : 2784,
            "byteOffset" : 6680
        },
        {
            "buffer" : 0,
            "byteLength" : 1856,
            "byteOffset" : 9464
        },
        {
            "buffer" : 0,
            "byteLength" : 696,
            "byteOffset" : 11320
        },
        {
            "buffer" : 0,
            "byteLength" : 22464,
            "byteOffset" : 12016
        },
        {
            "buffer" : 0,
            "byteLength" : 22464,
            "byteOffset" : 34480
        },
        {
            "buffer" : 0,
            "byteLength" : 5088,
            "byteOffset" : 56944
        },
        {
            "buffer" : 0,
            "byteLength" : 19776,
            "byteOffset" : 62032
        },
        {
            "buffer" : 0,
            "byteLength" : 19776,
            "byteOffset" : 81808
        },
        {
            "buffer" : 0,
            "byteLength" : 4944,
            "byteOffset" : 101584
        },
        {
            "buffer" : 0,
            "byteLength" : 3744,
            "byteOffset" : 106528
        },
        {
            "buffer" : 0,
            "byteLength" : 3744,
            "byteOffset" : 110272
        },
        {
            "buffer" : 0,
            "byteLength" : 936,
            "byteOffset" : 114016
        },
        {
            "buffer" : 0,
            "byteLength" : 3744,
            "byteOffset" : 114952
        },
        {
            "buffer" : 0,
            "byteLength" : 3744,
            "byteOffset" : 118696
        }
    ],
    "buffers" : [
        {
            "byteLength" : 122440,
            "uri" : "data:application/octet-stream;base64,"
        }
    ]
}
